<?xml version="1.0" encoding="UTF-8"?>
<svg version="1.1" xmlns="http://www.w3.org/2000/svg" width="381" height="273">
<path d="M0 0 C125.73 0 251.46 0 381 0 C381 90.09 381 180.18 381 273 C255.27 273 129.54 273 0 273 C0 182.91 0 92.82 0 0 Z " fill="#FDFEFE" transform="translate(0,0)"/>
<path d="M0 0 C15.51 0 31.02 0 47 0 C44 6 44 6 41 9 C37.04 9 33.08 9 29 9 C29 19.23 29 29.46 29 40 C19.97581552 36.39032621 19.97581552 36.39032621 17 33 C16.17897677 29.95259847 16.37639393 27.12533346 16.625 24 C16.7046705 22.41687005 16.78030361 20.83353087 16.8515625 19.25 C16.89055664 18.51394531 16.92955078 17.77789062 16.96972656 17.01953125 C17.00639167 14.573614 16.63707679 12.35813498 16 10 C14.96939453 10.01740234 14.96939453 10.01740234 13.91796875 10.03515625 C13.01691406 10.04417969 12.11585937 10.05320312 11.1875 10.0625 C9.84751953 10.07990234 9.84751953 10.07990234 8.48046875 10.09765625 C6 10 6 10 3 9 C1.875 6.125 1.875 6.125 1 3 C0.67 2.01 0.34 1.02 0 0 Z " fill="#CBFCFE" transform="translate(74,114)"/>
<path d="M0 0 C1.6875 1.1875 1.6875 1.1875 3.6875 4.1875 C3.90942711 7.04373074 4.01198385 9.77044691 4 12.625 C4.01611328 13.38876953 4.03222656 14.15253906 4.04882812 14.93945312 C4.05180987 18.36547588 4.00108854 20.60538403 2.35546875 23.66015625 C-0.36528907 26.15152933 -3.19936592 26.40682296 -6.75 26.5625 C-7.51183594 26.61148438 -8.27367187 26.66046875 -9.05859375 26.7109375 C-11.3125 26.1875 -11.3125 26.1875 -13.5703125 24.19921875 C-15.88271585 20.20176811 -15.87057759 17.15638346 -15.75 12.625 C-15.75708984 11.87025391 -15.76417969 11.11550781 -15.77148438 10.33789062 C-15.73404044 7.06874736 -15.54702846 4.61895032 -13.97265625 1.72265625 C-10.20005112 -1.76589391 -4.65490671 -1.63550776 0 0 Z " fill="#353635" transform="translate(177.3125,125.8125)"/>
<path d="M0 0 C2.69921875 1.296875 2.69921875 1.296875 5 4 C5.6309581 7.92939389 5.46876061 11.78338449 5.3125 15.75 C5.28994141 16.82894531 5.26738281 17.90789062 5.24414062 19.01953125 C5.1852565 21.6810935 5.10307001 24.33984228 5 27 C3.68 27 2.36 27 1 27 C1 26.34 1 25.68 1 25 C0.484375 25.33 -0.03125 25.66 -0.5625 26 C-3.90236837 27.37020241 -6.42599644 27.3898913 -10 27 C-12.84223083 24.70787837 -12.98284286 23.12009999 -13.5 19.5 C-13 16 -13 16 -11.0625 13.5625 C-6.94900079 11.46377591 -3.52819552 11.64484741 1 12 C0.34 9.69 -0.32 7.38 -1 5 C-2.65 5 -4.3 5 -6 5 C-6.66 6.32 -7.32 7.64 -8 9 C-9.32 9 -10.64 9 -12 9 C-12.3125 6.75 -12.3125 6.75 -12 4 C-8.34539166 -0.09759117 -5.36892187 -0.76698884 0 0 Z " fill="#393A39" transform="translate(252,125)"/>
<path d="M0 0 C1.32 0 2.64 0 4 0 C4 6.27 4 12.54 4 19 C8.72374181 14.55371691 8.72374181 14.55371691 11 11.1875 C13 9 13 9 15.75 8.6875 C16.86375 8.8421875 16.86375 8.8421875 18 9 C14.18181818 14.79310345 14.18181818 14.79310345 12.1875 17.0625 C10.76354512 18.95477431 10.76354512 18.95477431 11.203125 21.328125 C12.13285018 24.44543885 13.47717142 26.20616963 15.5625 28.6875 C19 32.8028169 19 32.8028169 19 35 C16.76171875 35.33984375 16.76171875 35.33984375 14 35 C11.83203125 32.62890625 11.83203125 32.62890625 9.8125 29.5625 C7.46872499 25.65911873 7.46872499 25.65911873 4 23 C4 26.96 4 30.92 4 35 C2.68 35 1.36 35 0 35 C0 23.45 0 11.9 0 0 Z " fill="#3D3F3E" transform="translate(285,117)"/>
<path d="M0 0 C1.32 0 2.64 0 4 0 C4.33 6.93 4.66 13.86 5 21 C7.31 21 9.62 21 12 21 C14.3968665 18.6031335 14.28281133 17.92971686 14.4140625 14.6484375 C14.45273438 13.79765625 14.49140625 12.946875 14.53125 12.0703125 C14.5621875 11.18085938 14.593125 10.29140625 14.625 9.375 C14.68300781 8.02921875 14.68300781 8.02921875 14.7421875 6.65625 C14.83659357 4.4377073 14.92216748 2.21917597 15 0 C16.32 0 17.64 0 19 0 C19 8.58 19 17.16 19 26 C17.35 25.67 15.7 25.34 14 25 C13.34 25.33 12.68 25.66 12 26 C4.96616731 26.56724457 4.96616731 26.56724457 1.7578125 24.68359375 C-1.09221311 20.33255465 -0.41731403 15.82090207 -0.25 10.75 C-0.23195313 9.71875 -0.21390625 8.6875 -0.1953125 7.625 C-0.14822712 5.08238936 -0.0824805 2.54166838 0 0 Z " fill="#383838" transform="translate(126,126)"/>
<path d="M0 0 C2.31279611 1.15639806 4.17409828 2.17409828 6 4 C6.04063832 5.66617115 6.042721 7.33388095 6 9 C4.68 9 3.36 9 2 9 C1.34 7.68 0.68 6.36 0 5 C-2.91652174 4.83318891 -2.91652174 4.83318891 -6 5 C-8.31443714 6.88093282 -8.31443714 6.88093282 -8.23046875 9.96875 C-8.21628906 11.1340625 -8.20210938 12.299375 -8.1875 13.5 C-8.18105469 14.6653125 -8.17460937 15.830625 -8.16796875 17.03125 C-8.20057939 19.92882002 -8.20057939 19.92882002 -7 22 C-4.69 22 -2.38 22 0 22 C0.66 20.68 1.32 19.36 2 18 C3.32 18 4.64 18 6 18 C5.6875 21.375 5.6875 21.375 5 25 C1.84905867 27.10062755 0.7775634 27.34313286 -2.875 27.4375 C-3.71804688 27.47746094 -4.56109375 27.51742187 -5.4296875 27.55859375 C-9.2712912 26.72371635 -10.67216463 25.12430815 -13 22 C-13.48000643 19.09014735 -13.66086891 16.88194313 -13.5625 14 C-13.57345703 13.30132812 -13.58441406 12.60265625 -13.59570312 11.8828125 C-13.52646403 6.98991639 -12.46641025 4.42105535 -9 1 C-5.93570224 -0.53214888 -3.3834358 -0.22938548 0 0 Z " fill="#3C3D3C" transform="translate(274,125)"/>
<path d="M0 0 C0.74958984 0.01353516 1.49917969 0.02707031 2.27148438 0.04101562 C4.11879767 0.07631461 5.96574066 0.13012083 7.8125 0.1875 C7.1525 1.5075 6.4925 2.8275 5.8125 4.1875 C1.8525 4.1875 -2.1075 4.1875 -6.1875 4.1875 C-6.1875 14.4175 -6.1875 24.6475 -6.1875 35.1875 C-7.8375 34.5275 -9.4875 33.8675 -11.1875 33.1875 C-11.26169134 28.97000781 -11.3161204 24.75286189 -11.35229492 20.53491211 C-11.36737589 19.10027448 -11.3878438 17.66568292 -11.41381836 16.23120117 C-11.45023437 14.16834141 -11.46723243 12.10609142 -11.48046875 10.04296875 C-11.4961792 8.80184326 -11.51188965 7.56071777 -11.52807617 6.28198242 C-11.1875 3.1875 -11.1875 3.1875 -9.90625 1.27734375 C-6.89871826 -0.62970479 -3.43999649 -0.11717019 0 0 Z " fill="#6483D2" transform="translate(109.1875,118.8125)"/>
<path d="M0 0 C3.0625 0.25 3.0625 0.25 6.0625 2.25 C6.33918225 4.84426798 6.43545242 7.16263646 6.375 9.75 C6.37822266 10.43964844 6.38144531 11.12929687 6.38476562 11.83984375 C6.32962592 16.98287408 6.32962592 16.98287408 4.0625 19.25 C0.5625 19.5 0.5625 19.5 -2.9375 19.25 C-5.42960439 16.75789561 -5.19765661 15.24639212 -5.2109375 11.83984375 C-5.20320312 11.15019531 -5.19546875 10.46054688 -5.1875 9.75 C-5.19523438 9.06035156 -5.20296875 8.37070313 -5.2109375 7.66015625 C-5.18279299 0.44108876 -5.18279299 0.44108876 0 0 Z " fill="#F8F9F9" transform="translate(170.9375,128.75)"/>
<path d="M0 0 C15.51 0 31.02 0 47 0 C46.34 1.32 45.68 2.64 45 4 C30.81 4 16.62 4 2 4 C1.34 2.68 0.68 1.36 0 0 Z " fill="#4FD5D8" transform="translate(74,114)"/>
<path d="M0 0 C5.94 0 11.88 0 18 0 C18 0.99 18 1.98 18 3 C15.69 3 13.38 3 11 3 C11 13.23 11 23.46 11 34 C9.68 34 8.36 34 7 34 C7 23.77 7 13.54 7 3 C4.69 3 2.38 3 0 3 C0 2.01 0 1.02 0 0 Z " fill="#333434" transform="translate(201,118)"/>
<path d="M0 0 C1.32 0 2.64 0 4 0 C4 1.65 4 3.3 4 5 C5.65 5 7.3 5 9 5 C9 6.32 9 7.64 9 9 C7.68 9 6.36 9 5 9 C5.33 14.61 5.66 20.22 6 26 C6.99 26.33 7.98 26.66 9 27 C9 28.32 9 29.64 9 31 C5.82613066 31.35265215 4.44436874 31.33565096 1.85253906 29.37792969 C-0.54775088 26.29690385 -0.46369256 24.57570569 -0.390625 20.703125 C-0.37773437 19.49785156 -0.36484375 18.29257813 -0.3515625 17.05078125 C-0.31804687 15.79652344 -0.28453125 14.54226562 -0.25 13.25 C-0.23195312 11.98027344 -0.21390625 10.71054688 -0.1953125 9.40234375 C-0.14817153 6.26746923 -0.08237664 3.1341144 0 0 Z " fill="#515252" transform="translate(149,121)"/>
<path d="M0 0 C0.8353125 0.37125 0.8353125 0.37125 1.6875 0.75 C0.6975 1.245 0.6975 1.245 -0.3125 1.75 C1.9975 2.08 4.3075 2.41 6.6875 2.75 C5.8125 8.5 5.8125 8.5 4.6875 10.75 C5.6775 11.08 6.6675 11.41 7.6875 11.75 C3.62001185 14.7081732 0.69348059 15.39892341 -4.3125 14.75 C-7.15473083 12.45787837 -7.29534286 10.87009999 -7.8125 7.25 C-7.3125 3.75 -7.3125 3.75 -5.0625 1.25 C-2.3125 -0.25 -2.3125 -0.25 0 0 Z " fill="#3C3D3C" transform="translate(246.3125,137.25)"/>
<path d="M0 0 C1.32 0 2.64 0 4 0 C4.33 0.66 4.66 1.32 5 2 C5.99 1.34 6.98 0.68 8 0 C9.32 0 10.64 0 12 0 C12 1.65 12 3.3 12 5 C9.69 5.33 7.38 5.66 5 6 C4.67 12.93 4.34 19.86 4 27 C2.68 27 1.36 27 0 27 C0 18.09 0 9.18 0 0 Z " fill="#3D3F3E" transform="translate(185,125)"/>
<path d="M0 0 C1.32 0 2.64 0 4 0 C4.33 0.66 4.66 1.32 5 2 C5.99 1.34 6.98 0.68 8 0 C9.32 0 10.64 0 12 0 C12 1.65 12 3.3 12 5 C9.69 5.33 7.38 5.66 5 6 C4.67 12.93 4.34 19.86 4 27 C2.68 27 1.36 27 0 27 C0 18.09 0 9.18 0 0 Z " fill="#424343" transform="translate(223,125)"/>
<path d="M0 0 C0 7.59 0 15.18 0 23 C-4 22 -4 22 -5 21 C-5.1810363 18.40019999 -5.27813914 15.85226219 -5.3125 13.25 C-5.34150391 12.53328125 -5.37050781 11.8165625 -5.40039062 11.078125 C-5.44590726 7.26873312 -5.136357 5.21011498 -3.04296875 1.984375 C-1 0 -1 0 0 0 Z " fill="#5C81E2" transform="translate(96,126)"/>
<path d="M0 0 C2.27248124 1.76748541 2.83423232 3.61048569 3.6875 6.3125 C2.65625 5.9825 1.625 5.6525 0.5625 5.3125 C-2.80242955 4.34816043 -5.79634861 4.06134633 -9.3125 4.3125 C-11.05206658 6.05206658 -10.68440386 8.5061622 -10.875 10.875 C-10.95878906 11.88691406 -11.04257813 12.89882812 -11.12890625 13.94140625 C-11.18949219 14.72386719 -11.25007812 15.50632813 -11.3125 16.3125 C-11.6425 16.3125 -11.9725 16.3125 -12.3125 16.3125 C-12.6425 13.6725 -12.9725 11.0325 -13.3125 8.3125 C-14.3025 8.8075 -14.3025 8.8075 -15.3125 9.3125 C-14.94912961 2.89295641 -14.94912961 2.89295641 -12.1875 0.375 C-7.96223426 -1.18651125 -4.32485698 -1.28576829 0 0 Z " fill="#414342" transform="translate(177.3125,125.6875)"/>
<path d="M0 0 C6.93 0 13.86 0 21 0 C15 8 15 8 13 9 C13 7.35 13 5.7 13 4 C12.31292969 4.04640625 11.62585938 4.0928125 10.91796875 4.140625 C10.01691406 4.17671875 9.11585937 4.2128125 8.1875 4.25 C7.29417969 4.29640625 6.40085937 4.3428125 5.48046875 4.390625 C3 4 3 4 0 0 Z " fill="#55CFD1" transform="translate(78,119)"/>
<path d="M0 0 C0.66 0 1.32 0 2 0 C2 9.57 2 19.14 2 29 C1.01 28.67 0.02 28.34 -1 28 C-1.02886338 23.52084672 -1.04675187 19.04171709 -1.0625 14.5625 C-1.07087891 13.28310547 -1.07925781 12.00371094 -1.08789062 10.68554688 C-1.09111328 9.47060547 -1.09433594 8.25566406 -1.09765625 7.00390625 C-1.10289307 5.87799072 -1.10812988 4.7520752 -1.11352539 3.59204102 C-1 1 -1 1 0 0 Z " fill="#5A80E8" transform="translate(100,122)"/>
<path d="M0 0 C1.670625 0.061875 1.670625 0.061875 3.375 0.125 C2.625 5.875 2.625 5.875 0.375 8.125 C-2.125 8.375 -2.125 8.375 -4.625 8.125 C-5.285 7.465 -5.945 6.805 -6.625 6.125 C-6.05355836 1.55346689 -4.71465298 0.16257424 0 0 Z " fill="#EBEBEB" transform="translate(249.625,139.875)"/>
<path d="M0 0 C0.33 0 0.66 0 1 0 C1.66 4.62 2.32 9.24 3 14 C2.34 14 1.68 14 1 14 C1 14.66 1 15.32 1 16 C0.34 16 -0.32 16 -1 16 C-2.36271133 13.27457733 -2.16923601 11.03912726 -2.1875 8 C-2.20167969 6.9275 -2.21585938 5.855 -2.23046875 4.75 C-2 2 -2 2 0 0 Z " fill="#343535" transform="translate(164,133)"/>
<path d="M0 0 C0 1.65 0 3.3 0 5 C-0.66 5 -1.32 5 -2 5 C-2 10.94 -2 16.88 -2 23 C-2.99 22.34 -3.98 21.68 -5 21 C-5.33292907 18.29757572 -5.46395555 15.88837076 -5.4375 13.1875 C-5.45748047 12.47529297 -5.47746094 11.76308594 -5.49804688 11.02929688 C-5.49455301 7.25242793 -5.11527158 5.17668865 -3.03515625 1.98828125 C-1 0 -1 0 0 0 Z " fill="#7B95DA" transform="translate(96,126)"/>
<path d="M0 0 C0.33 0 0.66 0 1 0 C1 8.91 1 17.82 1 27 C0.01 26.67 -0.98 26.34 -2 26 C-1.34 17.42 -0.68 8.84 0 0 Z " fill="#AFC5F7" transform="translate(97,124)"/>
<path d="M0 0 C0 0.33 0 0.66 0 1 C-1.98 1 -3.96 1 -6 1 C-6.144375 1.763125 -6.28875 2.52625 -6.4375 3.3125 C-7 6 -7 6 -8 9 C-9.32 9 -10.64 9 -12 9 C-12.3125 6.75 -12.3125 6.75 -12 4 C-8.2996981 -0.14882334 -5.40488073 -0.42391221 0 0 Z " fill="#4D4E4D" transform="translate(252,125)"/>
<path d="M0 0 C0.99 0 1.98 0 3 0 C3 1.65 3 3.3 3 5 C4.65 5 6.3 5 8 5 C8 5.99 8 6.98 8 8 C7.05125 7.814375 6.1025 7.62875 5.125 7.4375 C2.10131207 6.71313368 2.10131207 6.71313368 0 8 C0 5.36 0 2.72 0 0 Z " fill="#313332" transform="translate(150,121)"/>
<path d="M0 0 C0 1.65 0 3.3 0 5 C-1.98 5.33 -3.96 5.66 -6 6 C-6.33 5.34 -6.66 4.68 -7 4 C-6.67 3.01 -6.34 2.02 -6 1 C-4 0 -4 0 0 0 Z " fill="#545655" transform="translate(197,125)"/>
<path d="M0 0 C1.32 0 2.64 0 4 0 C3.67 2.31 3.34 4.62 3 7 C1.68 7 0.36 7 -1 7 C-2 4 -2 4 -1.0625 1.8125 C-0.5365625 0.9153125 -0.5365625 0.9153125 0 0 Z " fill="#414141" transform="translate(276,143)"/>
<path d="M0 0 C0.86625 0.3403125 0.86625 0.3403125 1.75 0.6875 C0.76 1.1825 0.76 1.1825 -0.25 1.6875 C-0.518125 2.3475 -0.78625 3.0075 -1.0625 3.6875 C-2.25 5.6875 -2.25 5.6875 -4.875 6.4375 C-6.050625 6.56125 -6.050625 6.56125 -7.25 6.6875 C-6.87492618 3.96821483 -6.40781339 2.84531339 -4.4375 0.875 C-2.25 -0.3125 -2.25 -0.3125 0 0 Z " fill="#494949" transform="translate(246.25,137.3125)"/>
<path d="M0 0 C2.97 0.33 5.94 0.66 9 1 C7.68 1.33 6.36 1.66 5 2 C4.67 2.99 4.34 3.98 4 5 C2.0625 4.625 2.0625 4.625 0 4 C-0.33 3.34 -0.66 2.68 -1 2 C-0.67 1.34 -0.34 0.68 0 0 Z " fill="#505151" transform="translate(165,147)"/>
<path d="M0 0 C1.35015859 4.05047576 0.62084998 6.7920168 0 11 C-0.33 11 -0.66 11 -1 11 C-1.33 9.35 -1.66 7.7 -2 6 C-2.99 6.99 -3.98 7.98 -5 9 C-5 4.61031544 -2.87194899 3.23094261 0 0 Z " fill="#C4ECFE" transform="translate(97,121)"/>
<path d="M0 0 C2.31 0 4.62 0 7 0 C7 0.66 7 1.32 7 2 C8.65 2 10.3 2 12 2 C12 2.33 12 2.66 12 3 C10.37581255 3.08090971 8.75048255 3.13914995 7.125 3.1875 C5.76761719 3.23970703 5.76761719 3.23970703 4.3828125 3.29296875 C3.20332031 3.14794922 3.20332031 3.14794922 2 3 C1.34 2.01 0.68 1.02 0 0 Z " fill="#47CAC9" transform="translate(79,120)"/>
<path d="M0 0 C0.33 0 0.66 0 1 0 C1.1953125 2.05078125 1.390625 4.1015625 1.5859375 6.15234375 C1.72257812 6.76207031 1.85921875 7.37179688 2 8 C2.66 8.33 3.32 8.66 4 9 C3.67 10.32 3.34 11.64 3 13 C0.95204577 11.0373772 0.05023362 9.5722693 -0.19921875 6.73046875 C-0.18858877 4.48045617 -0.12958525 2.24614438 0 0 Z " fill="#555656" transform="translate(261,138)"/>
</svg>
